<svg xmlns="http://www.w3.org/2000/svg" xmlns:xlink="http://www.w3.org/1999/xlink" xmlns:lucid="lucid" width="1483" height="881"><g transform="translate(1940.5 -279.5)" lucid:page-tab-id="0_0"><path d="M-2000 0H0v1500h-2000z" fill="#fff"/><path d="M-1920 325.5a8 8 0 0 1 8-8h184a8 8 0 0 1 8 8v184a8 8 0 0 1-8 8h-184a8 8 0 0 1-8-8z" fill="#fff"/><path d="M-1920 325.5a8 8 0 0 1 8-8h184a8 8 0 0 1 8 8v184a8 8 0 0 1-8 8h-184a8 8 0 0 1-8-8zM-1920 357.5h200M-1860 357.5v160" stroke="#3a414a" fill="none"/><use xlink:href="#a" transform="matrix(1,0,0,1,-1910,317.49207181821197) translate(52.074999999999996 23.6)"/><use xlink:href="#b" transform="matrix(1,0,0,1,-1915,359.99207181821197) translate(12.524999999999999 17.1)"/><use xlink:href="#c" transform="matrix(1,0,0,1,-1855,359.99207181821197) translate(22.574999999999996 17.1)"/><use xlink:href="#d" transform="matrix(1,0,0,1,-1855,391.99207181821197) translate(42.525 17.1)"/><use xlink:href="#e" transform="matrix(1,0,0,1,-1855,423.99207181821197) translate(43.574999999999996 17.1)"/><use xlink:href="#f" transform="matrix(1,0,0,1,-1855,455.99207181821197) translate(31.049999999999997 17.1)"/><use xlink:href="#g" transform="matrix(1,0,0,1,-1855,487.99207181821197) translate(27.525 17.1)"/><path d="M-1560 352a8 8 0 0 1 8-8h184a8 8 0 0 1 8 8v280a8 8 0 0 1-8 8h-184a8 8 0 0 1-8-8z" fill="#fff"/><path d="M-1560 352a8 8 0 0 1 8-8h184a8 8 0 0 1 8 8v280a8 8 0 0 1-8 8h-184a8 8 0 0 1-8-8zM-1560 384h200M-1500 384v256" stroke="#3a414a" fill="none"/><use xlink:href="#h" transform="matrix(1,0,0,1,-1550,343.99999999999994) translate(49.55 23.6)"/><use xlink:href="#b" transform="matrix(1,0,0,1,-1555,386.49999999999994) translate(12.524999999999999 17.1)"/><use xlink:href="#i" transform="matrix(1,0,0,1,-1495,386.49999999999994) translate(21.624999999999993 17.1)"/><use xlink:href="#j" transform="matrix(1,0,0,1,-1495,418.49999999999994) translate(15.524999999999999 17.1)"/><use xlink:href="#k" transform="matrix(1,0,0,1,-1495,450.49999999999994) translate(41 17.1)"/><use xlink:href="#l" transform="matrix(1,0,0,1,-1495,482.49999999999994) translate(48.025 17.1)"/><use xlink:href="#m" transform="matrix(1,0,0,1,-1555,514.5) translate(8.524999999999999 17.1)"/><use xlink:href="#n" transform="matrix(1,0,0,1,-1495,514.5) translate(25.074999999999996 17.1)"/><use xlink:href="#o" transform="matrix(1,0,0,1,-1555,546.5) translate(8.524999999999999 17.1)"/><use xlink:href="#p" transform="matrix(1,0,0,1,-1495,546.5) translate(7.099999999999994 17.1)"/><use xlink:href="#q" transform="matrix(1,0,0,1,-1555,578.5) translate(8.524999999999999 17.1)"/><use xlink:href="#r" transform="matrix(1,0,0,1,-1495,578.5) translate(6.049999999999997 17.1)"/><use xlink:href="#s" transform="matrix(1,0,0,1,-1555,610.5) translate(8.524999999999999 17.1)"/><use xlink:href="#t" transform="matrix(1,0,0,1,-1495,610.5) translate(20.599999999999994 17.1)"/><path d="M-760 308a8 8 0 0 1 8-8h184a8 8 0 0 1 8 8v216a8 8 0 0 1-8 8h-184a8 8 0 0 1-8-8z" fill="#fff"/><path d="M-760 308a8 8 0 0 1 8-8h184a8 8 0 0 1 8 8v216a8 8 0 0 1-8 8h-184a8 8 0 0 1-8-8zM-760 340h200M-700 340v192" stroke="#3a414a" fill="none"/><use xlink:href="#u" transform="matrix(1,0,0,1,-750,300) translate(32.12499999999999 23.6)"/><use xlink:href="#b" transform="matrix(1,0,0,1,-755,342.5) translate(12.524999999999999 17.1)"/><use xlink:href="#v" transform="matrix(1,0,0,1,-695,342.5) translate(3.5999999999999943 17.1)"/><use xlink:href="#d" transform="matrix(1,0,0,1,-695,374.5) translate(42.525 17.1)"/><use xlink:href="#w" transform="matrix(1,0,0,1,-695,406.5) translate(26.549999999999997 17.1)"/><use xlink:href="#x" transform="matrix(1,0,0,1,-695,438.5) translate(42.525 17.1)"/><use xlink:href="#m" transform="matrix(1,0,0,1,-755,470.5) translate(8.524999999999999 17.1)"/><use xlink:href="#y" transform="matrix(1,0,0,1,-695,470.5) translate(24.049999999999997 17.1)"/><use xlink:href="#o" transform="matrix(1,0,0,1,-755,502.5) translate(8.524999999999999 17.1)"/><use xlink:href="#z" transform="matrix(1,0,0,1,-695,502.5) translate(2.0999999999999943 17.1)"/><path d="M-1260 525.5a8 8 0 0 1 8-8h184a8 8 0 0 1 8 8v216a8 8 0 0 1-8 8h-184a8 8 0 0 1-8-8z" fill="#fff"/><path d="M-1260 525.5a8 8 0 0 1 8-8h184a8 8 0 0 1 8 8v216a8 8 0 0 1-8 8h-184a8 8 0 0 1-8-8zM-1260 557.5h200M-1200 557.5v192" stroke="#3a414a" fill="none"/><use xlink:href="#A" transform="matrix(1,0,0,1,-1250,517.492071818212) translate(21.14999999999999 23.6)"/><use xlink:href="#b" transform="matrix(1,0,0,1,-1255,559.992071818212) translate(12.524999999999999 17.1)"/><use xlink:href="#B" transform="matrix(1,0,0,1,-1195,559.992071818212) translate(2.17499999999999 17.1)"/><use xlink:href="#d" transform="matrix(1,0,0,1,-1195,591.992071818212) translate(42.525 17.1)"/><use xlink:href="#e" transform="matrix(1,0,0,1,-1195,623.992071818212) translate(43.574999999999996 17.1)"/><use xlink:href="#f" transform="matrix(1,0,0,1,-1195,655.992071818212) translate(31.049999999999997 17.1)"/><use xlink:href="#C" transform="matrix(1,0,0,1,-1195,687.992071818212) translate(38.574999999999996 17.1)"/><use xlink:href="#D" transform="matrix(1,0,0,1,-1195,719.992071818212) translate(30.549999999999997 17.1)"/><path d="M-920 948a8 8 0 0 1 8-8h184a8 8 0 0 1 8 8v184a8 8 0 0 1-8 8h-184a8 8 0 0 1-8-8z" fill="#fff"/><path d="M-920 948a8 8 0 0 1 8-8h184a8 8 0 0 1 8 8v184a8 8 0 0 1-8 8h-184a8 8 0 0 1-8-8zM-920 980h200M-860 980v160" stroke="#3a414a" fill="none"/><use xlink:href="#E" transform="matrix(1,0,0,1,-910,940) translate(14.149999999999991 23.6)"/><use xlink:href="#b" transform="matrix(1,0,0,1,-915,982.5) translate(12.524999999999999 17.1)"/><use xlink:href="#F" transform="matrix(1,0,0,1,-855,982.5) translate(4.1499999999999915 17.1)"/><use xlink:href="#d" transform="matrix(1,0,0,1,-855,1014.5) translate(42.525 17.1)"/><use xlink:href="#e" transform="matrix(1,0,0,1,-855,1046.5) translate(43.574999999999996 17.1)"/><use xlink:href="#f" transform="matrix(1,0,0,1,-855,1078.5) translate(31.049999999999997 17.1)"/><use xlink:href="#g" transform="matrix(1,0,0,1,-855,1110.5) translate(27.525 17.1)"/><path d="M-1000 628a8 8 0 0 1 8-8h184a8 8 0 0 1 8 8v152a8 8 0 0 1-8 8h-184a8 8 0 0 1-8-8z" fill="#fff"/><path d="M-1000 628a8 8 0 0 1 8-8h184a8 8 0 0 1 8 8v152a8 8 0 0 1-8 8h-184a8 8 0 0 1-8-8zM-1000 660h200M-940 660v128" stroke="#3a414a" fill="none"/><use xlink:href="#G" transform="matrix(1,0,0,1,-990,620) translate(22.625 23.6)"/><use xlink:href="#b" transform="matrix(1,0,0,1,-995,662.5) translate(12.524999999999999 17.1)"/><use xlink:href="#H" transform="matrix(1,0,0,1,-935,662.5) translate(-2.3500000000000085 17.1)"/><use xlink:href="#d" transform="matrix(1,0,0,1,-935,694.5) translate(42.525 17.1)"/><use xlink:href="#I" transform="matrix(1,0,0,1,-935,726.5) translate(33 17.1)"/><use xlink:href="#o" transform="matrix(1,0,0,1,-995,758.5) translate(8.524999999999999 17.1)"/><use xlink:href="#J" transform="matrix(1,0,0,1,-935,758.5) translate(8.074999999999996 17.1)"/><path d="M-1699.5 373.27h5.28m5.28 0h10.55m5.3 0h10.54m5.28 0h5.28l1.88.15 1.83.44 1.75.72.53.33m4.38 4.4l.33.52.7 1.74.45 1.83.15 1.87v4.84m0 4.86v9.68m0 4.84v9.7m0 4.83v9.7m0 4.83v9.7m0 4.83v9.68m0 4.84v9.7m0 4.83v9.7m0 4.83v9.7m0 4.83V516l.15 1.88.44 1.83.7 1.75.34.53m4.38 4.38l.53.33 1.74.7 1.82.45 1.88.15h4.67m4.66 0h9.34m4.66 0h4.67" stroke="#3a414a" fill="none"/><path d="M-1709.5 383.27v-20M-1719.5 373.27h20M-1699.5 383.27v-20" stroke="#3a414a" fill="#fff"/><path d="M-1560.72 538l-20-10 20-10" stroke="#3a414a" fill="#fff" fill-opacity="0"/><path d="M-1560.72 528h-20M-1580.72 528c0 5.52-4.48 10-10 10-5.53 0-10-4.48-10-10s4.47-10 10-10c5.52 0 10 4.48 10 10" stroke="#3a414a" fill="#fff"/><path d="M-940.5 995.78h-4.9m-4.88 0h-9.78m-4.88 0h-9.78m-4.9 0h-9.77m-4.88 0h-9.77m-4.9 0h-9.77m-4.9 0h-4.88l-1.88-.15-1.83-.44-1.75-.73-.53-.33m-4.38-4.38l-.33-.53-.7-1.74-.45-1.84-.15-1.88v-5.12m0-5.13V963.3m0-5.13v-10.25m0-5.12v-10.25m0-5.12V917.2m0-5.14v-10.24m0-5.12v-10.25m0-5.12v-10.25m0-5.12v-10.24m0-5.13v-10.25m0-5.12v-10.25m0-5.12V809.6m0-5.1v-10.25m0-5.13V784l.15-1.88.44-1.83.7-1.75.34-.53m4.38-4.38l.53-.33 1.74-.7 1.82-.45 1.88-.15h8" stroke="#3a414a" fill="none"/><path d="M-930.5 985.78v20M-920.5 995.78h-20M-940.5 985.78v20" stroke="#3a414a" fill="#fff"/><path d="M-1000.72 782l-20-10 20-10" stroke="#3a414a" fill="#fff" fill-opacity="0"/><path d="M-1000.72 772h-20M-1020.72 762v20" stroke="#3a414a" fill="#fff"/><path d="M-1280.5 573.5h-3.8m-3.8 0h-7.57m-3.8 0h-3.78l-1.06-.1-1.04-.24-.98-.4-.3-.2m-2.46-2.45l-.2-.3-.4-.97-.24-1.03-.08-1.05-.08-1.06-.25-1.04-.4-.98-.2-.3m-2.45-2.46l-.3-.18-.98-.4-1.03-.26-1.05-.08h-3.8m-3.78 0h-7.6m-3.78 0h-3.8" stroke="#3a414a" fill="none"/><path d="M-1270.5 563.5v20M-1260.5 573.5h-20M-1280.5 563.5v20" stroke="#3a414a" fill="#fff"/><path d="M-1359.28 550l20 10-20 10" stroke="#3a414a" fill="#fff" fill-opacity="0"/><path d="M-1359.28 560h20M-1339.28 570v-20" stroke="#3a414a" fill="#fff"/><path d="M-1140 325.5a8 8 0 0 1 8-8h184a8 8 0 0 1 8 8v120a8 8 0 0 1-8 8h-184a8 8 0 0 1-8-8z" fill="#fff"/><path d="M-1140 325.5a8 8 0 0 1 8-8h184a8 8 0 0 1 8 8v120a8 8 0 0 1-8 8h-184a8 8 0 0 1-8-8zM-1140 357.5h200M-1080 357.5v96" stroke="#3a414a" fill="none"/><use xlink:href="#K" transform="matrix(1,0,0,1,-1130,317.49207181821197) translate(-2.3249999999999886 23.6)"/><use xlink:href="#L" transform="matrix(1,0,0,1,-1135,359.99207181821197) translate(-5.975000000000001 17.1)"/><use xlink:href="#M" transform="matrix(1,0,0,1,-1075,359.99207181821197) translate(24.049999999999997 17.1)"/><use xlink:href="#N" transform="matrix(1,0,0,1,-1135,391.99207181821197) translate(-5.975000000000001 17.1)"/><use xlink:href="#O" transform="matrix(1,0,0,1,-1075,391.99207181821197) translate(6.599999999999994 17.1)"/><use xlink:href="#P" transform="matrix(1,0,0,1,-1075,423.99207181821197) translate(20.525 17.1)"/><path d="M-1339.5 400h77.5a12 12 0 0 0 12-12v-2.5a12 12 0 0 1 12-12h77.5" stroke="#3a414a" fill="none"/><path d="M-1349.5 410v-20M-1359.5 400h20M-1339.5 410v-20" stroke="#3a414a" fill="#fff"/><path d="M-1140.72 383.5l-20-10 20-10" stroke="#3a414a" fill="#fff" fill-opacity="0"/><path d="M-1140.72 373.5h-20M-1160.72 363.5v20" stroke="#3a414a" fill="#fff"/><path d="M-780.5 356H-838a12 12 0 0 0-12 12v25.5a12 12 0 0 1-12 12h-57.5" stroke="#3a414a" fill="none"/><path d="M-770.5 346v20M-760.5 356h-20M-780.5 346v20" stroke="#3a414a" fill="#fff"/><path d="M-939.28 395.5l20 10-20 10" stroke="#3a414a" fill="#fff" fill-opacity="0"/><path d="M-939.28 405.5h20M-919.28 415.5v-20" stroke="#3a414a" fill="#fff"/><path d="M-1820 808a8 8 0 0 1 8-8h184a8 8 0 0 1 8 8v152a8 8 0 0 1-8 8h-184a8 8 0 0 1-8-8z" fill="#fff"/><path d="M-1820 808a8 8 0 0 1 8-8h184a8 8 0 0 1 8 8v152a8 8 0 0 1-8 8h-184a8 8 0 0 1-8-8zM-1820 840h200M-1760 840v128" stroke="#3a414a" fill="none"/><use xlink:href="#Q" transform="matrix(1,0,0,1,-1810,800) translate(0.3500000000000085 23.6)"/><use xlink:href="#b" transform="matrix(1,0,0,1,-1815,842.5) translate(12.524999999999999 17.1)"/><use xlink:href="#R" transform="matrix(1,0,0,1,-1755,842.5) translate(18.074999999999996 17.1)"/><use xlink:href="#S" transform="matrix(1,0,0,1,-1755,874.5) translate(5.074999999999996 17.1)"/><use xlink:href="#T" transform="matrix(1,0,0,1,-1755,906.5) translate(34.525 17.1)"/><use xlink:href="#U" transform="matrix(1,0,0,1,-1755,938.5) translate(22.65 17.1)"/><path d="M-1920 600a8 8 0 0 1 8-8h184a8 8 0 0 1 8 8v88a8 8 0 0 1-8 8h-184a8 8 0 0 1-8-8z" fill="#fff"/><path d="M-1920 600a8 8 0 0 1 8-8h184a8 8 0 0 1 8 8v88a8 8 0 0 1-8 8h-184a8 8 0 0 1-8-8zM-1920 632h200M-1860 632v64" stroke="#3a414a" fill="none"/><use xlink:href="#V" transform="matrix(1,0,0,1,-1910,592) translate(33.425 23.6)"/><use xlink:href="#b" transform="matrix(1,0,0,1,-1915,634.5) translate(12.524999999999999 17.1)"/><use xlink:href="#W" transform="matrix(1,0,0,1,-1855,634.5) translate(3.1499999999999915 17.1)"/><use xlink:href="#X" transform="matrix(1,0,0,1,-1855,666.5) translate(26.549999999999997 17.1)"/><path d="M-1699.5 648h5.28m5.28 0h10.55m5.3 0h10.54m5.28 0h5.28l1.88-.15 1.83-.44 1.75-.7.53-.34m4.38-4.38l.33-.53.7-1.74.45-1.82.15-1.88v-5.25m0-5.25V615m0-5.25v-5.25l.15-1.88.44-1.83.7-1.75.34-.53m4.38-4.38l.53-.33 1.74-.7 1.82-.45 1.88-.15h5.28m5.28 0h10.55m5.3 0h10.54m5.28 0h5.28" stroke="#3a414a" fill="none"/><path d="M-1709.5 658v-20M-1719.5 648h20M-1699.5 658v-20M-1570.5 582.5v20M-1560.5 592.5h-20M-1580.5 582.5v20" stroke="#3a414a" fill="#fff"/><path d="M-1580.5 624.66l-1.5.12-1.44.35-1.37.57-.44.25m-3.46 3.47l-.26.43-.58 1.37-.34 1.45-.12 1.5v5.04m0 5.06v10.1m0 5.06v10.1m0 5.06v10.1m0 5.06v10.1m0 5.05V715m0 5.05v10.1m0 5.06v10.1m0 5.07v10.1m0 5.05v10.1m0 5.06v10.1m0 5.06v10.1m0 5.05v10.1m0 5.05v10.1m0 5.06v5.06l-.12 1.5-.35 1.44-.57 1.37-.26.43m-3.46 3.47l-.43.25-1.36.57-1.45.34-1.5.12" stroke="#3a414a" fill="none"/><path d="M-1570.5 614.66v20M-1560.5 624.66h-20M-1580.5 614.66v20M-1609.5 865.86v-20M-1619.5 855.86h20M-1599.5 865.86v-20" stroke="#3a414a" fill="#fff"/><path d="M-700 628a8 8 0 0 1 8-8h184a8 8 0 0 1 8 8v120a8 8 0 0 1-8 8h-184a8 8 0 0 1-8-8z" fill="#fff"/><path d="M-700 628a8 8 0 0 1 8-8h184a8 8 0 0 1 8 8v120a8 8 0 0 1-8 8h-184a8 8 0 0 1-8-8zM-700 660h200M-640 660v96" stroke="#3a414a" fill="none"/><use xlink:href="#Y" transform="matrix(1,0,0,1,-690,620) translate(-8.799999999999997 23.6)"/><use xlink:href="#Z" transform="matrix(1,0,0,1,-695,662.5) translate(-5.975000000000001 17.1)"/><use xlink:href="#aa" transform="matrix(1,0,0,1,-635,662.5) translate(6.599999999999994 17.1)"/><use xlink:href="#ab" transform="matrix(1,0,0,1,-695,694.5) translate(-5.975000000000001 17.1)"/><use xlink:href="#ac" transform="matrix(1,0,0,1,-635,694.5) translate(2.0999999999999943 17.1)"/><use xlink:href="#ad" transform="matrix(1,0,0,1,-635,726.5) translate(20.525 17.1)"/><path d="M-779.5 675.86h17.5a12 12 0 0 1 12 12v8.24a12 12 0 0 0 12 12h18.1" stroke="#3a414a" fill="none"/><path d="M-789.5 685.86v-20M-799.5 675.86h20M-779.5 685.86v-20" stroke="#3a414a" fill="#fff"/><path d="M-700.72 718.1l-20-10 20-10" stroke="#3a414a" fill="#fff" fill-opacity="0"/><path d="M-700.72 708.1h-20" stroke="#3a414a" fill="#fff"/><path d="M-539.5 355.7h68a12 12 0 0 1 12 12v296.24a12 12 0 0 1-12 12h-8.6" stroke="#3a414a" fill="none"/><path d="M-549.5 365.7v-20M-559.5 355.7h20M-539.5 365.7v-20" stroke="#3a414a" fill="#fff"/><path d="M-499.28 665.94l20 10-20 10" stroke="#3a414a" fill="#fff" fill-opacity="0"/><path d="M-499.28 675.94h20" stroke="#3a414a" fill="#fff"/><defs><path fill="#3a414a" d="M212-179c-10-28-35-45-73-45-59 0-87 40-87 99 0 60 29 101 89 101 43 0 62-24 78-52l27 14C228-24 195 4 139 4 59 4 22-46 18-125c-6-104 99-153 187-111 19 9 31 26 39 46" id="ae"/><path fill="#3a414a" d="M30 0v-248h33v221h125V0H30" id="af"/><path fill="#3a414a" d="M33 0v-248h34V0H33" id="ag"/><path fill="#3a414a" d="M30 0v-248h187v28H63v79h144v27H63v87h162V0H30" id="ah"/><path fill="#3a414a" d="M190 0L58-211 59 0H30v-248h39L202-35l-2-213h31V0h-41" id="ai"/><path fill="#3a414a" d="M127-220V0H93v-220H8v-28h204v28h-85" id="aj"/><g id="a"><use transform="matrix(0.05,0,0,0.05,0,0)" xlink:href="#ae"/><use transform="matrix(0.05,0,0,0.05,12.950000000000001,0)" xlink:href="#af"/><use transform="matrix(0.05,0,0,0.05,22.950000000000003,0)" xlink:href="#ag"/><use transform="matrix(0.05,0,0,0.05,27.950000000000003,0)" xlink:href="#ah"/><use transform="matrix(0.05,0,0,0.05,39.95,0)" xlink:href="#ai"/><use transform="matrix(0.05,0,0,0.05,52.900000000000006,0)" xlink:href="#aj"/><use transform="matrix(0.05,0,0,0.05,63.85,0)" xlink:href="#ah"/></g><path fill="#3a414a" d="M241-173c-1 82-78 91-166 86L58 0H6l48-248c87 0 188-12 187 75zm-53 2c0-43-48-36-90-36l-15 80c50 0 105 7 105-44" id="ak"/><path fill="#3a414a" d="M175 0l-63-112-37 21L58 0H6l48-248h52L83-135l134-113h65L150-139 232 0h-57" id="al"/><g id="b"><use transform="matrix(0.05,0,0,0.05,0,0)" xlink:href="#ak"/><use transform="matrix(0.05,0,0,0.05,12,0)" xlink:href="#al"/></g><path fill="#3a414a" d="M6 0l48-248h52L58 0H6" id="am"/><path fill="#3a414a" d="M250-142C247-53 197 0 108 0H6l48-248c105-5 200 3 196 106zm-49 2c1-57-42-72-103-68L66-40c84 6 135-22 135-100" id="an"/><path fill="#3a414a" d="M-21 44V30h207v14H-21" id="ao"/><path fill="#3a414a" d="M67-101c-8 29-7 73 27 71 23-2 32-16 39-37l48 9C170-19 141 4 91 4 36 4 7-28 12-86c6-75 61-124 140-103 26 7 40 29 43 59l-50 4c-1-20-9-34-29-34-35 0-41 29-49 59" id="ap"/><path fill="#3a414a" d="M6 0l51-261h49L55 0H6" id="aq"/><path fill="#3a414a" d="M50-224l7-37h49l-7 37H50zM6 0l37-190h49L55 0H6" id="ar"/><path fill="#3a414a" d="M114-194c63-2 87 48 72 110H63c-3 28 1 55 31 54 21-1 32-13 37-29l44 13C160-14 137 4 91 4 41 4 11-22 11-73c0-71 33-119 103-121zm30 77c14-47-50-61-67-22-3 6-6 13-8 22h75" id="as"/><path fill="#3a414a" d="M151-194c95 0 34 128 28 194h-49l25-134c0-29-45-25-59-9C67-111 69-48 56 0H6l36-190h47l-4 32c15-20 33-36 66-36" id="at"/><path fill="#3a414a" d="M72-63c-8 23 5 39 32 30L98-1C54 14 12-6 23-64l18-93H15l7-33h28l24-45h31l-8 45h35l-6 33H90" id="au"/><g id="c"><use transform="matrix(0.05,0,0,0.05,0,0)" xlink:href="#am"/><use transform="matrix(0.05,0,0,0.05,5,0)" xlink:href="#an"/><use transform="matrix(0.05,0,0,0.05,17.950000000000003,0)" xlink:href="#ao"/><use transform="matrix(0.05,0,0,0.05,27.950000000000003,0)" xlink:href="#ap"/><use transform="matrix(0.05,0,0,0.05,37.95,0)" xlink:href="#aq"/><use transform="matrix(0.05,0,0,0.05,42.95,0)" xlink:href="#ar"/><use transform="matrix(0.05,0,0,0.05,47.95,0)" xlink:href="#as"/><use transform="matrix(0.05,0,0,0.05,57.95,0)" xlink:href="#at"/><use transform="matrix(0.05,0,0,0.05,68.9,0)" xlink:href="#au"/><use transform="matrix(0.05,0,0,0.05,74.85000000000001,0)" xlink:href="#as"/></g><path fill="#3a414a" d="M117-194c89-4 53 116 60 194h-32v-121c0-31-8-49-39-48C34-167 62-67 57 0H25l-1-190h30c1 10-1 24 2 32 11-22 29-35 61-36" id="av"/><path fill="#3a414a" d="M100-194c62-1 85 37 85 99 1 63-27 99-86 99S16-35 15-95c0-66 28-99 85-99zM99-20c44 1 53-31 53-75 0-43-8-75-51-75s-53 32-53 75 10 74 51 75" id="aw"/><path fill="#3a414a" d="M210-169c-67 3-38 105-44 169h-31v-121c0-29-5-50-35-48C34-165 62-65 56 0H25l-1-190h30c1 10-1 24 2 32 10-44 99-50 107 0 11-21 27-35 58-36 85-2 47 119 55 194h-31v-121c0-29-5-49-35-48" id="ax"/><path fill="#3a414a" d="M100-194c63 0 86 42 84 106H49c0 40 14 67 53 68 26 1 43-12 49-29l28 8c-11 28-37 45-77 45C44 4 14-33 15-96c1-61 26-98 85-98zm52 81c6-60-76-77-97-28-3 7-6 17-6 28h103" id="ay"/><g id="d"><use transform="matrix(0.05,0,0,0.05,0,0)" xlink:href="#av"/><use transform="matrix(0.05,0,0,0.05,10,0)" xlink:href="#aw"/><use transform="matrix(0.05,0,0,0.05,20,0)" xlink:href="#ax"/><use transform="matrix(0.05,0,0,0.05,34.95,0)" xlink:href="#ay"/></g><path fill="#3a414a" d="M141-36C126-15 110 5 73 4 37 3 15-17 15-53c-1-64 63-63 125-63 3-35-9-54-41-54-24 1-41 7-42 31l-33-3c5-37 33-52 76-52 45 0 72 20 72 64v82c-1 20 7 32 28 27v20c-31 9-61-2-59-35zM48-53c0 20 12 33 32 33 41-3 63-29 60-74-43 2-92-5-92 41" id="az"/><path fill="#3a414a" d="M24-231v-30h32v30H24zM24 0v-190h32V0H24" id="aA"/><path fill="#3a414a" d="M24 0v-261h32V0H24" id="aB"/><g id="e"><use transform="matrix(0.05,0,0,0.05,0,0)" xlink:href="#ay"/><use transform="matrix(0.05,0,0,0.05,10,0)" xlink:href="#ax"/><use transform="matrix(0.05,0,0,0.05,24.950000000000003,0)" xlink:href="#az"/><use transform="matrix(0.05,0,0,0.05,34.95,0)" xlink:href="#aA"/><use transform="matrix(0.05,0,0,0.05,38.900000000000006,0)" xlink:href="#aB"/></g><path fill="#3a414a" d="M101-234c-31-9-42 10-38 44h38v23H63V0H32v-167H5v-23h27c-7-52 17-82 69-68v24" id="aC"/><g id="f"><use transform="matrix(0.05,0,0,0.05,0,0)" xlink:href="#aj"/><use transform="matrix(0.05,0,0,0.05,8.950000000000001,0)" xlink:href="#ay"/><use transform="matrix(0.05,0,0,0.05,18.950000000000003,0)" xlink:href="#aB"/><use transform="matrix(0.05,0,0,0.05,22.900000000000002,0)" xlink:href="#ay"/><use transform="matrix(0.05,0,0,0.05,32.900000000000006,0)" xlink:href="#aC"/><use transform="matrix(0.05,0,0,0.05,37.900000000000006,0)" xlink:href="#aw"/><use transform="matrix(0.05,0,0,0.05,47.900000000000006,0)" xlink:href="#av"/><use transform="matrix(0.05,0,0,0.05,57.900000000000006,0)" xlink:href="#ay"/></g><path fill="#3a414a" d="M85-194c31 0 48 13 60 33l-1-100h32l1 261h-30c-2-10 0-23-3-31C134-8 116 4 85 4 32 4 16-35 15-94c0-66 23-100 70-100zm9 24c-40 0-46 34-46 75 0 40 6 74 45 74 42 0 51-32 51-76 0-42-9-74-50-73" id="aD"/><path fill="#3a414a" d="M114-163C36-179 61-72 57 0H25l-1-190h30c1 12-1 29 2 39 6-27 23-49 58-41v29" id="aE"/><path fill="#3a414a" d="M96-169c-40 0-48 33-48 73s9 75 48 75c24 0 41-14 43-38l32 2c-6 37-31 61-74 61-59 0-76-41-82-99-10-93 101-131 147-64 4 7 5 14 7 22l-32 3c-4-21-16-35-41-35zm3 187c19-1 33 8 33 26 0 31-30 33-64 32V58c18 2 39 4 41-13 1-15-18-13-34-13L87 0h19" id="aF"/><g id="g"><use transform="matrix(0.05,0,0,0.05,0,0)" xlink:href="#ay"/><use transform="matrix(0.05,0,0,0.05,10,0)" xlink:href="#av"/><use transform="matrix(0.05,0,0,0.05,20,0)" xlink:href="#aD"/><use transform="matrix(0.05,0,0,0.05,30,0)" xlink:href="#ay"/><use transform="matrix(0.05,0,0,0.05,40,0)" xlink:href="#aE"/><use transform="matrix(0.05,0,0,0.05,45.95,0)" xlink:href="#ay"/><use transform="matrix(0.05,0,0,0.05,55.95,0)" xlink:href="#aF"/><use transform="matrix(0.05,0,0,0.05,64.95,0)" xlink:href="#aw"/></g><path fill="#3a414a" d="M30-248c87 1 191-15 191 75 0 78-77 80-158 76V0H30v-248zm33 125c57 0 124 11 124-50 0-59-68-47-124-48v98" id="aG"/><path fill="#3a414a" d="M30-248c118-7 216 8 213 122C240-48 200 0 122 0H30v-248zM63-27c89 8 146-16 146-99s-60-101-146-95v194" id="aH"/><path fill="#3a414a" d="M140-251c81 0 123 46 123 126C263-46 219 4 140 4 59 4 17-45 17-125s42-126 123-126zm0 227c63 0 89-41 89-101s-29-99-89-99c-61 0-89 39-89 99S79-25 140-24" id="aI"/><path fill="#3a414a" d="M185-189c-5-48-123-54-124 2 14 75 158 14 163 119 3 78-121 87-175 55-17-10-28-26-33-46l33-7c5 56 141 63 141-1 0-78-155-14-162-118-5-82 145-84 179-34 5 7 8 16 11 25" id="aJ"/><g id="h"><use transform="matrix(0.05,0,0,0.05,0,0)" xlink:href="#aG"/><use transform="matrix(0.05,0,0,0.05,12,0)" xlink:href="#ah"/><use transform="matrix(0.05,0,0,0.05,24,0)" xlink:href="#aH"/><use transform="matrix(0.05,0,0,0.05,36.95,0)" xlink:href="#ag"/><use transform="matrix(0.05,0,0,0.05,41.95,0)" xlink:href="#aH"/><use transform="matrix(0.05,0,0,0.05,54.900000000000006,0)" xlink:href="#aI"/><use transform="matrix(0.05,0,0,0.05,68.9,0)" xlink:href="#aJ"/></g><path fill="#3a414a" d="M156-122c2-23-7-37-28-37-47 0-58 44-58 89 0 24 12 40 36 40 43 0 47-49 50-92zM-8 75l50-265h48c0 10-3 24-3 30 22-50 127-45 121 29-6 73-21 135-92 135-29 0-46-14-55-35L41 75H-8" id="aK"/><path fill="#3a414a" d="M132-28C118-9 101 4 69 4 30 4 10-23 10-62c0-70 24-129 92-132 31-1 47 14 56 35l19-102h49L179 0h-49zM62-69c0 22 7 39 29 39 45-2 54-45 57-90 2-27-10-40-33-40-44 0-53 48-53 91" id="aL"/><path fill="#3a414a" d="M124-194c51 0 84 22 84 74C207-44 167 4 94 4 43 4 11-23 11-74c0-74 41-120 113-120zM99-30c46 0 58-42 58-86 0-27-11-44-37-44-44 0-55 40-57 84-1 27 10 45 36 46" id="aM"/><g id="i"><use transform="matrix(0.05,0,0,0.05,0,0)" xlink:href="#am"/><use transform="matrix(0.05,0,0,0.05,5,0)" xlink:href="#an"/><use transform="matrix(0.05,0,0,0.05,17.950000000000003,0)" xlink:href="#ao"/><use transform="matrix(0.05,0,0,0.05,27.950000000000003,0)" xlink:href="#aK"/><use transform="matrix(0.05,0,0,0.05,38.900000000000006,0)" xlink:href="#as"/><use transform="matrix(0.05,0,0,0.05,48.900000000000006,0)" xlink:href="#aL"/><use transform="matrix(0.05,0,0,0.05,59.85,0)" xlink:href="#ar"/><use transform="matrix(0.05,0,0,0.05,64.85000000000001,0)" xlink:href="#aL"/><use transform="matrix(0.05,0,0,0.05,75.80000000000001,0)" xlink:href="#aM"/></g><path fill="#3a414a" d="M59-47c-2 24 18 29 38 22v24C64 9 27 4 27-40v-127H5v-23h24l9-43h21v43h35v23H59v120" id="aN"/><path fill="#3a414a" d="M-5 72V49h209v23H-5" id="aO"/><path fill="#3a414a" d="M115-194c55 1 70 41 70 98S169 2 115 4C84 4 66-9 55-30l1 105H24l-1-265h31l2 30c10-21 28-34 59-34zm-8 174c40 0 45-34 45-75s-6-73-45-74c-42 0-51 32-51 76 0 43 10 73 51 73" id="aP"/><g id="j"><use transform="matrix(0.05,0,0,0.05,0,0)" xlink:href="#aD"/><use transform="matrix(0.05,0,0,0.05,10,0)" xlink:href="#az"/><use transform="matrix(0.05,0,0,0.05,20,0)" xlink:href="#aN"/><use transform="matrix(0.05,0,0,0.05,25,0)" xlink:href="#az"/><use transform="matrix(0.05,0,0,0.05,35,0)" xlink:href="#aO"/><use transform="matrix(0.05,0,0,0.05,45,0)" xlink:href="#aP"/><use transform="matrix(0.05,0,0,0.05,55,0)" xlink:href="#ay"/><use transform="matrix(0.05,0,0,0.05,65,0)" xlink:href="#aD"/><use transform="matrix(0.05,0,0,0.05,75,0)" xlink:href="#aA"/><use transform="matrix(0.05,0,0,0.05,78.95,0)" xlink:href="#aD"/><use transform="matrix(0.05,0,0,0.05,88.95,0)" xlink:href="#aw"/></g><path fill="#3a414a" d="M135-143c-3-34-86-38-87 0 15 53 115 12 119 90S17 21 10-45l28-5c4 36 97 45 98 0-10-56-113-15-118-90-4-57 82-63 122-42 12 7 21 19 24 35" id="aQ"/><path fill="#3a414a" d="M84 4C-5 8 30-112 23-190h32v120c0 31 7 50 39 49 72-2 45-101 50-169h31l1 190h-30c-1-10 1-25-2-33-11 22-28 36-60 37" id="aR"/><g id="k"><use transform="matrix(0.05,0,0,0.05,0,0)" xlink:href="#aQ"/><use transform="matrix(0.05,0,0,0.05,9,0)" xlink:href="#aN"/><use transform="matrix(0.05,0,0,0.05,14,0)" xlink:href="#az"/><use transform="matrix(0.05,0,0,0.05,24,0)" xlink:href="#aN"/><use transform="matrix(0.05,0,0,0.05,29,0)" xlink:href="#aR"/><use transform="matrix(0.05,0,0,0.05,39,0)" xlink:href="#aQ"/></g><g id="l"><use transform="matrix(0.05,0,0,0.05,0,0)" xlink:href="#aN"/><use transform="matrix(0.05,0,0,0.05,5,0)" xlink:href="#aw"/><use transform="matrix(0.05,0,0,0.05,15,0)" xlink:href="#aN"/><use transform="matrix(0.05,0,0,0.05,20,0)" xlink:href="#az"/><use transform="matrix(0.05,0,0,0.05,30,0)" xlink:href="#aB"/></g><path fill="#3a414a" d="M63-220v92h138v28H63V0H30v-248h175v28H63" id="aS"/><path fill="#3a414a" d="M194 0L95-120 63-95V0H30v-248h33v124l119-124h40L117-140 236 0h-42" id="aT"/><path fill="#3a414a" d="M27 0v-27h64v-190l-56 39v-29l58-41h29v221h61V0H27" id="aU"/><g id="m"><use transform="matrix(0.05,0,0,0.05,0,0)" xlink:href="#aS"/><use transform="matrix(0.05,0,0,0.05,10.950000000000001,0)" xlink:href="#aT"/><use transform="matrix(0.05,0,0,0.05,22.950000000000003,0)" xlink:href="#aU"/></g><path fill="#3a414a" d="M96-169c-40 0-48 33-48 73s9 75 48 75c24 0 41-14 43-38l32 2c-6 37-31 61-74 61-59 0-76-41-82-99-10-93 101-131 147-64 4 7 5 14 7 22l-32 3c-4-21-16-35-41-35" id="aV"/><g id="n"><use transform="matrix(0.05,0,0,0.05,0,0)" xlink:href="#ag"/><use transform="matrix(0.05,0,0,0.05,5,0)" xlink:href="#aH"/><use transform="matrix(0.05,0,0,0.05,17.950000000000003,0)" xlink:href="#aO"/><use transform="matrix(0.05,0,0,0.05,27.950000000000003,0)" xlink:href="#aV"/><use transform="matrix(0.05,0,0,0.05,36.95,0)" xlink:href="#aB"/><use transform="matrix(0.05,0,0,0.05,40.900000000000006,0)" xlink:href="#aA"/><use transform="matrix(0.05,0,0,0.05,44.85000000000001,0)" xlink:href="#ay"/><use transform="matrix(0.05,0,0,0.05,54.85,0)" xlink:href="#av"/><use transform="matrix(0.05,0,0,0.05,64.85000000000001,0)" xlink:href="#aN"/><use transform="matrix(0.05,0,0,0.05,69.85000000000001,0)" xlink:href="#ay"/></g><path fill="#3a414a" d="M101-251c82-7 93 87 43 132L82-64C71-53 59-42 53-27h129V0H18c2-99 128-94 128-182 0-28-16-43-45-43s-46 15-49 41l-32-3c6-41 34-60 81-64" id="aW"/><g id="o"><use transform="matrix(0.05,0,0,0.05,0,0)" xlink:href="#aS"/><use transform="matrix(0.05,0,0,0.05,10.950000000000001,0)" xlink:href="#aT"/><use transform="matrix(0.05,0,0,0.05,22.950000000000003,0)" xlink:href="#aW"/></g><g id="p"><use transform="matrix(0.05,0,0,0.05,0,0)" xlink:href="#ag"/><use transform="matrix(0.05,0,0,0.05,5,0)" xlink:href="#aH"/><use transform="matrix(0.05,0,0,0.05,17.950000000000003,0)" xlink:href="#aO"/><use transform="matrix(0.05,0,0,0.05,27.950000000000003,0)" xlink:href="#aC"/><use transform="matrix(0.05,0,0,0.05,32.95,0)" xlink:href="#aR"/><use transform="matrix(0.05,0,0,0.05,42.95,0)" xlink:href="#av"/><use transform="matrix(0.05,0,0,0.05,52.95,0)" xlink:href="#aV"/><use transform="matrix(0.05,0,0,0.05,61.95,0)" xlink:href="#aA"/><use transform="matrix(0.05,0,0,0.05,65.9,0)" xlink:href="#aw"/><use transform="matrix(0.05,0,0,0.05,75.9,0)" xlink:href="#av"/><use transform="matrix(0.05,0,0,0.05,85.9,0)" xlink:href="#az"/><use transform="matrix(0.05,0,0,0.05,95.9,0)" xlink:href="#aE"/><use transform="matrix(0.05,0,0,0.05,101.85000000000001,0)" xlink:href="#aA"/><use transform="matrix(0.05,0,0,0.05,105.80000000000001,0)" xlink:href="#aw"/></g><path fill="#3a414a" d="M126-127c33 6 58 20 58 59 0 88-139 92-164 29-3-8-5-16-6-25l32-3c6 27 21 44 54 44 32 0 52-15 52-46 0-38-36-46-79-43v-28c39 1 72-4 72-42 0-27-17-43-46-43-28 0-47 15-49 41l-32-3c6-42 35-63 81-64 48-1 79 21 79 65 0 36-21 52-52 59" id="aX"/><g id="q"><use transform="matrix(0.05,0,0,0.05,0,0)" xlink:href="#aS"/><use transform="matrix(0.05,0,0,0.05,10.950000000000001,0)" xlink:href="#aT"/><use transform="matrix(0.05,0,0,0.05,22.950000000000003,0)" xlink:href="#aX"/></g><path fill="#3a414a" d="M177-190C167-65 218 103 67 71c-23-6-38-20-44-43l32-5c15 47 100 32 89-28v-30C133-14 115 1 83 1 29 1 15-40 15-95c0-56 16-97 71-98 29-1 48 16 59 35 1-10 0-23 2-32h30zM94-22c36 0 50-32 50-73 0-42-14-75-50-75-39 0-46 34-46 75s6 73 46 73" id="aY"/><g id="r"><use transform="matrix(0.05,0,0,0.05,0,0)" xlink:href="#ag"/><use transform="matrix(0.05,0,0,0.05,5,0)" xlink:href="#aH"/><use transform="matrix(0.05,0,0,0.05,17.950000000000003,0)" xlink:href="#aO"/><use transform="matrix(0.05,0,0,0.05,27.950000000000003,0)" xlink:href="#aP"/><use transform="matrix(0.05,0,0,0.05,37.95,0)" xlink:href="#az"/><use transform="matrix(0.05,0,0,0.05,47.95,0)" xlink:href="#aY"/><use transform="matrix(0.05,0,0,0.05,57.95,0)" xlink:href="#az"/><use transform="matrix(0.05,0,0,0.05,67.95,0)" xlink:href="#ax"/><use transform="matrix(0.05,0,0,0.05,82.9,0)" xlink:href="#ay"/><use transform="matrix(0.05,0,0,0.05,92.9,0)" xlink:href="#av"/><use transform="matrix(0.05,0,0,0.05,102.9,0)" xlink:href="#aN"/><use transform="matrix(0.05,0,0,0.05,107.9,0)" xlink:href="#aw"/></g><path fill="#3a414a" d="M155-56V0h-30v-56H8v-25l114-167h33v167h35v25h-35zm-30-156c-27 46-58 90-88 131h88v-131" id="aZ"/><g id="s"><use transform="matrix(0.05,0,0,0.05,0,0)" xlink:href="#aS"/><use transform="matrix(0.05,0,0,0.05,10.950000000000001,0)" xlink:href="#aT"/><use transform="matrix(0.05,0,0,0.05,22.950000000000003,0)" xlink:href="#aZ"/></g><g id="t"><use transform="matrix(0.05,0,0,0.05,0,0)" xlink:href="#ag"/><use transform="matrix(0.05,0,0,0.05,5,0)" xlink:href="#aH"/><use transform="matrix(0.05,0,0,0.05,17.950000000000003,0)" xlink:href="#aO"/><use transform="matrix(0.05,0,0,0.05,27.950000000000003,0)" xlink:href="#aE"/><use transform="matrix(0.05,0,0,0.05,33.900000000000006,0)" xlink:href="#ay"/><use transform="matrix(0.05,0,0,0.05,43.900000000000006,0)" xlink:href="#aN"/><use transform="matrix(0.05,0,0,0.05,48.900000000000006,0)" xlink:href="#aA"/><use transform="matrix(0.05,0,0,0.05,52.85,0)" xlink:href="#aE"/><use transform="matrix(0.05,0,0,0.05,58.80000000000001,0)" xlink:href="#az"/><use transform="matrix(0.05,0,0,0.05,68.80000000000001,0)" xlink:href="#aD"/><use transform="matrix(0.05,0,0,0.05,78.80000000000001,0)" xlink:href="#az"/></g><path fill="#3a414a" d="M240 0l2-218c-23 76-54 145-80 218h-23L58-218 59 0H30v-248h44l77 211c21-75 51-140 76-211h43V0h-30" id="ba"/><path fill="#3a414a" d="M232-93c-1 65-40 97-104 97C67 4 28-28 28-90v-158h33c8 89-33 224 67 224 102 0 64-133 71-224h33v155" id="bb"/><g id="u"><use transform="matrix(0.05,0,0,0.05,0,0)" xlink:href="#ag"/><use transform="matrix(0.05,0,0,0.05,5,0)" xlink:href="#aj"/><use transform="matrix(0.05,0,0,0.05,15.950000000000001,0)" xlink:href="#ah"/><use transform="matrix(0.05,0,0,0.05,27.950000000000003,0)" xlink:href="#ai"/><use transform="matrix(0.05,0,0,0.05,40.900000000000006,0)" xlink:href="#aJ"/><use transform="matrix(0.05,0,0,0.05,52.900000000000006,0)" xlink:href="#aO"/><use transform="matrix(0.05,0,0,0.05,62.900000000000006,0)" xlink:href="#ba"/><use transform="matrix(0.05,0,0,0.05,77.85000000000001,0)" xlink:href="#ah"/><use transform="matrix(0.05,0,0,0.05,89.85000000000001,0)" xlink:href="#ai"/><use transform="matrix(0.05,0,0,0.05,102.80000000000001,0)" xlink:href="#bb"/></g><path fill="#3a414a" d="M255-194c90 0 29 129 24 194h-49l25-136c-7-39-53-14-60 9-12 38-18 85-28 127h-49l25-136c2-29-39-23-50-7C69-108 68-47 56 0H6l36-190h48c-1 10-6 24-4 32 12-20 27-36 57-36s46 15 50 41c14-21 29-41 62-41" id="bc"/><path fill="#3a414a" d="M69 3c-96 0-34-126-28-193h49L65-57c6 42 62 18 71-6 14-38 17-86 28-127h50L178 0h-47c0-11 4-26 3-33-14 20-30 37-65 36" id="bd"/><g id="v"><use transform="matrix(0.05,0,0,0.05,0,0)" xlink:href="#am"/><use transform="matrix(0.05,0,0,0.05,5,0)" xlink:href="#an"/><use transform="matrix(0.05,0,0,0.05,17.950000000000003,0)" xlink:href="#ao"/><use transform="matrix(0.05,0,0,0.05,27.950000000000003,0)" xlink:href="#bc"/><use transform="matrix(0.05,0,0,0.05,43.95,0)" xlink:href="#as"/><use transform="matrix(0.05,0,0,0.05,53.95,0)" xlink:href="#at"/><use transform="matrix(0.05,0,0,0.05,64.9,0)" xlink:href="#bd"/><use transform="matrix(0.05,0,0,0.05,75.85000000000001,0)" xlink:href="#ao"/><use transform="matrix(0.05,0,0,0.05,85.85000000000001,0)" xlink:href="#ar"/><use transform="matrix(0.05,0,0,0.05,90.85000000000001,0)" xlink:href="#au"/><use transform="matrix(0.05,0,0,0.05,96.80000000000001,0)" xlink:href="#as"/><use transform="matrix(0.05,0,0,0.05,106.80000000000001,0)" xlink:href="#bc"/></g><path fill="#3a414a" d="M141-36C126-15 110 5 73 4 37 3 15-17 15-53c-1-64 63-63 125-63 3-35-9-54-41-54-24 1-41 7-42 31l-33-3c5-37 33-52 76-52 45 0 72 20 72 64v82c-1 20 7 32 28 27v20c-31 9-61-2-59-35zM48-53c0 20 12 33 32 33 41-3 63-29 60-74-43 2-92-5-92 41zm117-205c-3 23-9 48-36 47-26-1-65-44-74 0H39c4-23 8-48 36-47s64 44 74 0h16" id="be"/><g id="w"><use transform="matrix(0.05,0,0,0.05,0,0)" xlink:href="#aD"/><use transform="matrix(0.05,0,0,0.05,10,0)" xlink:href="#ay"/><use transform="matrix(0.05,0,0,0.05,20,0)" xlink:href="#aQ"/><use transform="matrix(0.05,0,0,0.05,29,0)" xlink:href="#aV"/><use transform="matrix(0.05,0,0,0.05,38,0)" xlink:href="#aE"/><use transform="matrix(0.05,0,0,0.05,43.95,0)" xlink:href="#aA"/><use transform="matrix(0.05,0,0,0.05,47.900000000000006,0)" xlink:href="#aF"/><use transform="matrix(0.05,0,0,0.05,56.900000000000006,0)" xlink:href="#be"/><use transform="matrix(0.05,0,0,0.05,66.9,0)" xlink:href="#aw"/></g><g id="x"><use transform="matrix(0.05,0,0,0.05,0,0)" xlink:href="#aP"/><use transform="matrix(0.05,0,0,0.05,10,0)" xlink:href="#aE"/><use transform="matrix(0.05,0,0,0.05,15.949999999999998,0)" xlink:href="#ay"/><use transform="matrix(0.05,0,0,0.05,25.950000000000003,0)" xlink:href="#aF"/><use transform="matrix(0.05,0,0,0.05,34.95,0)" xlink:href="#aw"/></g><g id="y"><use transform="matrix(0.05,0,0,0.05,0,0)" xlink:href="#ag"/><use transform="matrix(0.05,0,0,0.05,5,0)" xlink:href="#aH"/><use transform="matrix(0.05,0,0,0.05,17.950000000000003,0)" xlink:href="#aO"/><use transform="matrix(0.05,0,0,0.05,27.950000000000003,0)" xlink:href="#aP"/><use transform="matrix(0.05,0,0,0.05,37.95,0)" xlink:href="#ay"/><use transform="matrix(0.05,0,0,0.05,47.95,0)" xlink:href="#aD"/><use transform="matrix(0.05,0,0,0.05,57.95,0)" xlink:href="#aA"/><use transform="matrix(0.05,0,0,0.05,61.900000000000006,0)" xlink:href="#aD"/><use transform="matrix(0.05,0,0,0.05,71.9,0)" xlink:href="#aw"/></g><g id="z"><use transform="matrix(0.05,0,0,0.05,0,0)" xlink:href="#ag"/><use transform="matrix(0.05,0,0,0.05,5,0)" xlink:href="#aH"/><use transform="matrix(0.05,0,0,0.05,17.950000000000003,0)" xlink:href="#aO"/><use transform="matrix(0.05,0,0,0.05,27.950000000000003,0)" xlink:href="#aA"/><use transform="matrix(0.05,0,0,0.05,31.900000000000002,0)" xlink:href="#av"/><use transform="matrix(0.05,0,0,0.05,41.900000000000006,0)" xlink:href="#aY"/><use transform="matrix(0.05,0,0,0.05,51.900000000000006,0)" xlink:href="#aE"/><use transform="matrix(0.05,0,0,0.05,57.85,0)" xlink:href="#ay"/><use transform="matrix(0.05,0,0,0.05,67.85000000000001,0)" xlink:href="#aD"/><use transform="matrix(0.05,0,0,0.05,77.85000000000001,0)" xlink:href="#aA"/><use transform="matrix(0.05,0,0,0.05,81.80000000000001,0)" xlink:href="#ay"/><use transform="matrix(0.05,0,0,0.05,91.80000000000001,0)" xlink:href="#av"/><use transform="matrix(0.05,0,0,0.05,101.80000000000001,0)" xlink:href="#aN"/><use transform="matrix(0.05,0,0,0.05,106.80000000000001,0)" xlink:href="#ay"/><use transform="matrix(0.05,0,0,0.05,116.80000000000001,0)" xlink:href="#aQ"/></g><path fill="#3a414a" d="M205 0l-28-72H64L36 0H1l101-248h38L239 0h-34zm-38-99l-47-123c-12 45-31 82-46 123h93" id="bf"/><path fill="#3a414a" d="M233-177c-1 41-23 64-60 70L243 0h-38l-65-103H63V0H30v-248c88 3 205-21 203 71zM63-129c60-2 137 13 137-47 0-61-80-42-137-45v92" id="bg"/><g id="A"><use transform="matrix(0.05,0,0,0.05,0,0)" xlink:href="#aS"/><use transform="matrix(0.05,0,0,0.05,10.950000000000001,0)" xlink:href="#bb"/><use transform="matrix(0.05,0,0,0.05,23.900000000000002,0)" xlink:href="#ai"/><use transform="matrix(0.05,0,0,0.05,36.85,0)" xlink:href="#ae"/><use transform="matrix(0.05,0,0,0.05,49.800000000000004,0)" xlink:href="#ag"/><use transform="matrix(0.05,0,0,0.05,54.800000000000004,0)" xlink:href="#aI"/><use transform="matrix(0.05,0,0,0.05,68.80000000000001,0)" xlink:href="#ai"/><use transform="matrix(0.05,0,0,0.05,81.75000000000001,0)" xlink:href="#bf"/><use transform="matrix(0.05,0,0,0.05,93.75000000000001,0)" xlink:href="#bg"/><use transform="matrix(0.05,0,0,0.05,106.7,0)" xlink:href="#ag"/><use transform="matrix(0.05,0,0,0.05,111.7,0)" xlink:href="#aI"/><use transform="matrix(0.05,0,0,0.05,125.7,0)" xlink:href="#aJ"/></g><path fill="#3a414a" d="M93-157L62 0H13l31-157H16l6-33h28c2-54 40-81 100-68l-6 32c-29-8-44 9-45 36h38l-7 33H93" id="bh"/><path fill="#3a414a" d="M166-52c-4 17 5 29 24 23l-3 27c-30 11-74 1-67-34C105-15 91 4 56 4 23 4 3-15 2-49c0-64 63-67 128-67 10-22 3-53-29-45-13 3-22 10-25 24l-46-5c5-64 156-77 153 0-1 33-11 60-17 90zM97-88c-44-9-64 57-19 57 31 0 42-28 47-57H97" id="bi"/><path fill="#3a414a" d="M84-151c13-25 34-51 72-40l-8 41C67-170 71-64 56 0H6l36-190h47" id="bj"/><g id="B"><use transform="matrix(0.05,0,0,0.05,0,0)" xlink:href="#am"/><use transform="matrix(0.05,0,0,0.05,5,0)" xlink:href="#an"/><use transform="matrix(0.05,0,0,0.05,17.950000000000003,0)" xlink:href="#ao"/><use transform="matrix(0.05,0,0,0.05,27.950000000000003,0)" xlink:href="#bh"/><use transform="matrix(0.05,0,0,0.05,33.900000000000006,0)" xlink:href="#bd"/><use transform="matrix(0.05,0,0,0.05,44.85000000000001,0)" xlink:href="#at"/><use transform="matrix(0.05,0,0,0.05,55.80000000000001,0)" xlink:href="#ap"/><use transform="matrix(0.05,0,0,0.05,65.80000000000001,0)" xlink:href="#ar"/><use transform="matrix(0.05,0,0,0.05,70.80000000000001,0)" xlink:href="#aM"/><use transform="matrix(0.05,0,0,0.05,81.75000000000001,0)" xlink:href="#at"/><use transform="matrix(0.05,0,0,0.05,92.70000000000002,0)" xlink:href="#bi"/><use transform="matrix(0.05,0,0,0.05,102.7,0)" xlink:href="#bj"/><use transform="matrix(0.05,0,0,0.05,109.7,0)" xlink:href="#ar"/><use transform="matrix(0.05,0,0,0.05,114.7,0)" xlink:href="#aM"/></g><g id="C"><use transform="matrix(0.05,0,0,0.05,0,0)" xlink:href="#aQ"/><use transform="matrix(0.05,0,0,0.05,9,0)" xlink:href="#az"/><use transform="matrix(0.05,0,0,0.05,19,0)" xlink:href="#aB"/><use transform="matrix(0.05,0,0,0.05,22.95,0)" xlink:href="#az"/><use transform="matrix(0.05,0,0,0.05,32.95,0)" xlink:href="#aE"/><use transform="matrix(0.05,0,0,0.05,38.900000000000006,0)" xlink:href="#aA"/><use transform="matrix(0.05,0,0,0.05,42.85000000000001,0)" xlink:href="#aw"/></g><g id="D"><use transform="matrix(0.05,0,0,0.05,0,0)" xlink:href="#ag"/><use transform="matrix(0.05,0,0,0.05,5,0)" xlink:href="#aH"/><use transform="matrix(0.05,0,0,0.05,17.950000000000003,0)" xlink:href="#aO"/><use transform="matrix(0.05,0,0,0.05,27.950000000000003,0)" xlink:href="#aN"/><use transform="matrix(0.05,0,0,0.05,32.95,0)" xlink:href="#aR"/><use transform="matrix(0.05,0,0,0.05,42.95,0)" xlink:href="#aE"/><use transform="matrix(0.05,0,0,0.05,48.900000000000006,0)" xlink:href="#av"/><use transform="matrix(0.05,0,0,0.05,58.900000000000006,0)" xlink:href="#aw"/></g><g id="E"><use transform="matrix(0.05,0,0,0.05,0,0)" xlink:href="#aS"/><use transform="matrix(0.05,0,0,0.05,10.950000000000001,0)" xlink:href="#aI"/><use transform="matrix(0.05,0,0,0.05,24.950000000000003,0)" xlink:href="#bg"/><use transform="matrix(0.05,0,0,0.05,37.900000000000006,0)" xlink:href="#ai"/><use transform="matrix(0.05,0,0,0.05,50.85000000000001,0)" xlink:href="#ah"/><use transform="matrix(0.05,0,0,0.05,62.85,0)" xlink:href="#ae"/><use transform="matrix(0.05,0,0,0.05,75.80000000000001,0)" xlink:href="#ah"/><use transform="matrix(0.05,0,0,0.05,87.80000000000001,0)" xlink:href="#aH"/><use transform="matrix(0.05,0,0,0.05,100.75000000000001,0)" xlink:href="#aI"/><use transform="matrix(0.05,0,0,0.05,114.75,0)" xlink:href="#bg"/><use transform="matrix(0.05,0,0,0.05,127.7,0)" xlink:href="#ah"/><use transform="matrix(0.05,0,0,0.05,139.70000000000002,0)" xlink:href="#aJ"/></g><g id="F"><use transform="matrix(0.05,0,0,0.05,0,0)" xlink:href="#am"/><use transform="matrix(0.05,0,0,0.05,5,0)" xlink:href="#an"/><use transform="matrix(0.05,0,0,0.05,17.950000000000003,0)" xlink:href="#ao"/><use transform="matrix(0.05,0,0,0.05,27.950000000000003,0)" xlink:href="#bh"/><use transform="matrix(0.05,0,0,0.05,33.900000000000006,0)" xlink:href="#aM"/><use transform="matrix(0.05,0,0,0.05,44.85000000000001,0)" xlink:href="#bj"/><use transform="matrix(0.05,0,0,0.05,51.85,0)" xlink:href="#at"/><use transform="matrix(0.05,0,0,0.05,62.80000000000001,0)" xlink:href="#as"/><use transform="matrix(0.05,0,0,0.05,72.80000000000001,0)" xlink:href="#ap"/><use transform="matrix(0.05,0,0,0.05,82.80000000000001,0)" xlink:href="#as"/><use transform="matrix(0.05,0,0,0.05,92.80000000000001,0)" xlink:href="#aL"/><use transform="matrix(0.05,0,0,0.05,103.75,0)" xlink:href="#aM"/><use transform="matrix(0.05,0,0,0.05,114.7,0)" xlink:href="#bj"/></g><path fill="#3a414a" d="M143 4C61 4 22-44 18-125c-5-107 100-154 193-111 17 8 29 25 37 43l-32 9c-13-25-37-40-76-40-61 0-88 39-88 99 0 61 29 100 91 101 35 0 62-11 79-27v-45h-74v-28h105v86C228-13 192 4 143 4" id="bk"/><g id="G"><use transform="matrix(0.05,0,0,0.05,0,0)" xlink:href="#ag"/><use transform="matrix(0.05,0,0,0.05,5,0)" xlink:href="#ai"/><use transform="matrix(0.05,0,0,0.05,17.950000000000003,0)" xlink:href="#bk"/><use transform="matrix(0.05,0,0,0.05,31.950000000000003,0)" xlink:href="#bg"/><use transform="matrix(0.05,0,0,0.05,44.900000000000006,0)" xlink:href="#ah"/><use transform="matrix(0.05,0,0,0.05,56.900000000000006,0)" xlink:href="#aH"/><use transform="matrix(0.05,0,0,0.05,69.85000000000001,0)" xlink:href="#ag"/><use transform="matrix(0.05,0,0,0.05,74.85000000000001,0)" xlink:href="#ah"/><use transform="matrix(0.05,0,0,0.05,86.85000000000001,0)" xlink:href="#ai"/><use transform="matrix(0.05,0,0,0.05,99.80000000000001,0)" xlink:href="#aj"/><use transform="matrix(0.05,0,0,0.05,110.75,0)" xlink:href="#ah"/><use transform="matrix(0.05,0,0,0.05,122.75,0)" xlink:href="#aJ"/></g><path fill="#3a414a" d="M45-171c29-32 103-29 114 14 2-11 5-23 8-33h47L176-2c-3 70-92 96-155 64C9 56 1 42-1 25l50-5c2 28 48 27 63 11 13-13 20-45 21-66-13 20-30 35-62 36-87 3-60-134-26-172zM94-35c41-3 55-43 55-86 0-24-12-39-35-39-43 0-51 48-51 90 0 22 9 37 31 35" id="bl"/><path fill="#3a414a" d="M144-137c-1-29-70-35-71-2 16 41 103 10 103 80C176 9 79 16 32-9 18-17 9-31 4-48l44-6c3 32 80 36 82 1-15-42-103-11-103-82 0-77 157-79 161-8" id="bm"/><g id="H"><use transform="matrix(0.05,0,0,0.05,0,0)" xlink:href="#am"/><use transform="matrix(0.05,0,0,0.05,5,0)" xlink:href="#an"/><use transform="matrix(0.05,0,0,0.05,17.950000000000003,0)" xlink:href="#ao"/><use transform="matrix(0.05,0,0,0.05,27.950000000000003,0)" xlink:href="#ar"/><use transform="matrix(0.05,0,0,0.05,32.95,0)" xlink:href="#at"/><use transform="matrix(0.05,0,0,0.05,43.900000000000006,0)" xlink:href="#bl"/><use transform="matrix(0.05,0,0,0.05,54.85,0)" xlink:href="#bj"/><use transform="matrix(0.05,0,0,0.05,61.85,0)" xlink:href="#as"/><use transform="matrix(0.05,0,0,0.05,71.85000000000001,0)" xlink:href="#aL"/><use transform="matrix(0.05,0,0,0.05,82.80000000000001,0)" xlink:href="#ar"/><use transform="matrix(0.05,0,0,0.05,87.80000000000001,0)" xlink:href="#as"/><use transform="matrix(0.05,0,0,0.05,97.80000000000001,0)" xlink:href="#at"/><use transform="matrix(0.05,0,0,0.05,108.75,0)" xlink:href="#au"/><use transform="matrix(0.05,0,0,0.05,114.7,0)" xlink:href="#as"/><use transform="matrix(0.05,0,0,0.05,124.7,0)" xlink:href="#bm"/></g><path fill="#3a414a" d="M145-31C134-9 116 4 85 4 32 4 16-35 15-94c0-59 17-99 70-100 32-1 48 14 60 33 0-11-1-24 2-32h30l-1 268h-32zM93-21c41 0 51-33 51-76s-8-73-50-73c-40 0-46 35-46 75s5 74 45 74" id="bn"/><g id="I"><use transform="matrix(0.05,0,0,0.05,0,0)" xlink:href="#ay"/><use transform="matrix(0.05,0,0,0.05,10,0)" xlink:href="#aQ"/><use transform="matrix(0.05,0,0,0.05,19,0)" xlink:href="#aN"/><use transform="matrix(0.05,0,0,0.05,24,0)" xlink:href="#aw"/><use transform="matrix(0.05,0,0,0.05,34,0)" xlink:href="#bn"/><use transform="matrix(0.05,0,0,0.05,44,0)" xlink:href="#aR"/><use transform="matrix(0.05,0,0,0.05,54,0)" xlink:href="#ay"/></g><g id="J"><use transform="matrix(0.05,0,0,0.05,0,0)" xlink:href="#ag"/><use transform="matrix(0.05,0,0,0.05,5,0)" xlink:href="#aH"/><use transform="matrix(0.05,0,0,0.05,17.950000000000003,0)" xlink:href="#aO"/><use transform="matrix(0.05,0,0,0.05,27.950000000000003,0)" xlink:href="#aC"/><use transform="matrix(0.05,0,0,0.05,32.95,0)" xlink:href="#aw"/><use transform="matrix(0.05,0,0,0.05,42.95,0)" xlink:href="#aE"/><use transform="matrix(0.05,0,0,0.05,48.900000000000006,0)" xlink:href="#av"/><use transform="matrix(0.05,0,0,0.05,58.900000000000006,0)" xlink:href="#ay"/><use transform="matrix(0.05,0,0,0.05,68.9,0)" xlink:href="#aV"/><use transform="matrix(0.05,0,0,0.05,77.9,0)" xlink:href="#ay"/><use transform="matrix(0.05,0,0,0.05,87.9,0)" xlink:href="#aD"/><use transform="matrix(0.05,0,0,0.05,97.9,0)" xlink:href="#aw"/><use transform="matrix(0.05,0,0,0.05,107.9,0)" xlink:href="#aE"/></g><g id="K"><use transform="matrix(0.05,0,0,0.05,0,0)" xlink:href="#aG"/><use transform="matrix(0.05,0,0,0.05,12,0)" xlink:href="#ah"/><use transform="matrix(0.05,0,0,0.05,24,0)" xlink:href="#aH"/><use transform="matrix(0.05,0,0,0.05,36.95,0)" xlink:href="#ag"/><use transform="matrix(0.05,0,0,0.05,41.95,0)" xlink:href="#aH"/><use transform="matrix(0.05,0,0,0.05,54.900000000000006,0)" xlink:href="#aI"/><use transform="matrix(0.05,0,0,0.05,68.9,0)" xlink:href="#aO"/><use transform="matrix(0.05,0,0,0.05,78.9,0)" xlink:href="#ag"/><use transform="matrix(0.05,0,0,0.05,83.9,0)" xlink:href="#aj"/><use transform="matrix(0.05,0,0,0.05,94.85000000000001,0)" xlink:href="#ah"/><use transform="matrix(0.05,0,0,0.05,106.85000000000001,0)" xlink:href="#ba"/><use transform="matrix(0.05,0,0,0.05,121.80000000000001,0)" xlink:href="#aO"/><use transform="matrix(0.05,0,0,0.05,131.8,0)" xlink:href="#ba"/><use transform="matrix(0.05,0,0,0.05,146.75,0)" xlink:href="#ah"/><use transform="matrix(0.05,0,0,0.05,158.75,0)" xlink:href="#ai"/><use transform="matrix(0.05,0,0,0.05,171.7,0)" xlink:href="#bb"/></g><path fill="#3a414a" d="M68-38c1 34 0 65-14 84H32c9-13 17-26 17-46H33v-38h35" id="bo"/><g id="L"><use transform="matrix(0.05,0,0,0.05,0,0)" xlink:href="#aG"/><use transform="matrix(0.05,0,0,0.05,12,0)" xlink:href="#aT"/><use transform="matrix(0.05,0,0,0.05,24,0)" xlink:href="#bo"/><use transform="matrix(0.05,0,0,0.05,29,0)" xlink:href="#aS"/><use transform="matrix(0.05,0,0,0.05,39.95,0)" xlink:href="#aT"/><use transform="matrix(0.05,0,0,0.05,51.95,0)" xlink:href="#aU"/></g><g id="M"><use transform="matrix(0.05,0,0,0.05,0,0)" xlink:href="#ag"/><use transform="matrix(0.05,0,0,0.05,5,0)" xlink:href="#aH"/><use transform="matrix(0.05,0,0,0.05,17.950000000000003,0)" xlink:href="#aO"/><use transform="matrix(0.05,0,0,0.05,27.950000000000003,0)" xlink:href="#aP"/><use transform="matrix(0.05,0,0,0.05,37.95,0)" xlink:href="#ay"/><use transform="matrix(0.05,0,0,0.05,47.95,0)" xlink:href="#aD"/><use transform="matrix(0.05,0,0,0.05,57.95,0)" xlink:href="#aA"/><use transform="matrix(0.05,0,0,0.05,61.900000000000006,0)" xlink:href="#aD"/><use transform="matrix(0.05,0,0,0.05,71.9,0)" xlink:href="#aw"/></g><g id="N"><use transform="matrix(0.05,0,0,0.05,0,0)" xlink:href="#aG"/><use transform="matrix(0.05,0,0,0.05,12,0)" xlink:href="#aT"/><use transform="matrix(0.05,0,0,0.05,24,0)" xlink:href="#bo"/><use transform="matrix(0.05,0,0,0.05,29,0)" xlink:href="#aS"/><use transform="matrix(0.05,0,0,0.05,39.95,0)" xlink:href="#aT"/><use transform="matrix(0.05,0,0,0.05,51.95,0)" xlink:href="#aW"/></g><g id="O"><use transform="matrix(0.05,0,0,0.05,0,0)" xlink:href="#ag"/><use transform="matrix(0.05,0,0,0.05,5,0)" xlink:href="#aH"/><use transform="matrix(0.05,0,0,0.05,17.950000000000003,0)" xlink:href="#aO"/><use transform="matrix(0.05,0,0,0.05,27.950000000000003,0)" xlink:href="#ax"/><use transform="matrix(0.05,0,0,0.05,42.900000000000006,0)" xlink:href="#ay"/><use transform="matrix(0.05,0,0,0.05,52.900000000000006,0)" xlink:href="#av"/><use transform="matrix(0.05,0,0,0.05,62.900000000000006,0)" xlink:href="#aR"/><use transform="matrix(0.05,0,0,0.05,72.9,0)" xlink:href="#aO"/><use transform="matrix(0.05,0,0,0.05,82.9,0)" xlink:href="#aA"/><use transform="matrix(0.05,0,0,0.05,86.85000000000001,0)" xlink:href="#aN"/><use transform="matrix(0.05,0,0,0.05,91.85000000000001,0)" xlink:href="#ay"/><use transform="matrix(0.05,0,0,0.05,101.85000000000001,0)" xlink:href="#ax"/></g><g id="P"><use transform="matrix(0.05,0,0,0.05,0,0)" xlink:href="#bn"/><use transform="matrix(0.05,0,0,0.05,10,0)" xlink:href="#aR"/><use transform="matrix(0.05,0,0,0.05,20,0)" xlink:href="#az"/><use transform="matrix(0.05,0,0,0.05,30,0)" xlink:href="#av"/><use transform="matrix(0.05,0,0,0.05,40,0)" xlink:href="#aN"/><use transform="matrix(0.05,0,0,0.05,45,0)" xlink:href="#aA"/><use transform="matrix(0.05,0,0,0.05,48.95,0)" xlink:href="#aD"/><use transform="matrix(0.05,0,0,0.05,58.95,0)" xlink:href="#az"/><use transform="matrix(0.05,0,0,0.05,68.95,0)" xlink:href="#aD"/><use transform="matrix(0.05,0,0,0.05,78.95,0)" xlink:href="#ay"/></g><g id="Q"><use transform="matrix(0.05,0,0,0.05,0,0)" xlink:href="#ba"/><use transform="matrix(0.05,0,0,0.05,14.950000000000001,0)" xlink:href="#ah"/><use transform="matrix(0.05,0,0,0.05,26.950000000000003,0)" xlink:href="#aj"/><use transform="matrix(0.05,0,0,0.05,37.550000000000004,0)" xlink:href="#aI"/><use transform="matrix(0.05,0,0,0.05,51.550000000000004,0)" xlink:href="#aH"/><use transform="matrix(0.05,0,0,0.05,64.5,0)" xlink:href="#aI"/><use transform="matrix(0.05,0,0,0.05,78.5,0)" xlink:href="#aO"/><use transform="matrix(0.05,0,0,0.05,88.5,0)" xlink:href="#bg"/><use transform="matrix(0.05,0,0,0.05,101.45,0)" xlink:href="#ah"/><use transform="matrix(0.05,0,0,0.05,113.45,0)" xlink:href="#aj"/><use transform="matrix(0.05,0,0,0.05,124.4,0)" xlink:href="#ag"/><use transform="matrix(0.05,0,0,0.05,129.4,0)" xlink:href="#bg"/><use transform="matrix(0.05,0,0,0.05,142.35,0)" xlink:href="#bf"/><use transform="matrix(0.05,0,0,0.05,154.35,0)" xlink:href="#aH"/><use transform="matrix(0.05,0,0,0.05,167.29999999999998,0)" xlink:href="#bf"/></g><g id="R"><use transform="matrix(0.05,0,0,0.05,0,0)" xlink:href="#am"/><use transform="matrix(0.05,0,0,0.05,5,0)" xlink:href="#an"/><use transform="matrix(0.05,0,0,0.05,17.950000000000003,0)" xlink:href="#ao"/><use transform="matrix(0.05,0,0,0.05,27.950000000000003,0)" xlink:href="#bj"/><use transform="matrix(0.05,0,0,0.05,34.95,0)" xlink:href="#as"/><use transform="matrix(0.05,0,0,0.05,44.95,0)" xlink:href="#au"/><use transform="matrix(0.05,0,0,0.05,50.900000000000006,0)" xlink:href="#ar"/><use transform="matrix(0.05,0,0,0.05,55.900000000000006,0)" xlink:href="#bj"/><use transform="matrix(0.05,0,0,0.05,62.900000000000006,0)" xlink:href="#bi"/><use transform="matrix(0.05,0,0,0.05,72.9,0)" xlink:href="#aL"/><use transform="matrix(0.05,0,0,0.05,83.85000000000001,0)" xlink:href="#bi"/></g><g id="S"><use transform="matrix(0.05,0,0,0.05,0,0)" xlink:href="#aV"/><use transform="matrix(0.05,0,0,0.05,9,0)" xlink:href="#aw"/><use transform="matrix(0.05,0,0,0.05,19,0)" xlink:href="#av"/><use transform="matrix(0.05,0,0,0.05,29,0)" xlink:href="#aQ"/><use transform="matrix(0.05,0,0,0.05,38,0)" xlink:href="#aR"/><use transform="matrix(0.05,0,0,0.05,48,0)" xlink:href="#ax"/><use transform="matrix(0.05,0,0,0.05,62.95,0)" xlink:href="#aw"/><use transform="matrix(0.05,0,0,0.05,72.95,0)" xlink:href="#aO"/><use transform="matrix(0.05,0,0,0.05,82.95,0)" xlink:href="#aB"/><use transform="matrix(0.05,0,0,0.05,86.9,0)" xlink:href="#aw"/><use transform="matrix(0.05,0,0,0.05,96.9,0)" xlink:href="#aV"/><use transform="matrix(0.05,0,0,0.05,105.9,0)" xlink:href="#az"/><use transform="matrix(0.05,0,0,0.05,115.9,0)" xlink:href="#aB"/></g><g id="T"><use transform="matrix(0.05,0,0,0.05,0,0)" xlink:href="#ay"/><use transform="matrix(0.05,0,0,0.05,10,0)" xlink:href="#av"/><use transform="matrix(0.05,0,0,0.05,20,0)" xlink:href="#aN"/><use transform="matrix(0.05,0,0,0.05,25,0)" xlink:href="#aE"/><use transform="matrix(0.05,0,0,0.05,30.950000000000003,0)" xlink:href="#ay"/><use transform="matrix(0.05,0,0,0.05,40.95,0)" xlink:href="#aY"/><use transform="matrix(0.05,0,0,0.05,50.95,0)" xlink:href="#az"/></g><path fill="#3a414a" d="M24-231v-30h32v30H24zM-9 49c24 4 33-6 33-30v-209h32V24c2 40-23 58-65 49V49" id="bp"/><g id="U"><use transform="matrix(0.05,0,0,0.05,0,0)" xlink:href="#aE"/><use transform="matrix(0.05,0,0,0.05,5.95,0)" xlink:href="#ay"/><use transform="matrix(0.05,0,0,0.05,15.949999999999998,0)" xlink:href="#aN"/><use transform="matrix(0.05,0,0,0.05,20.95,0)" xlink:href="#aA"/><use transform="matrix(0.05,0,0,0.05,24.9,0)" xlink:href="#aE"/><use transform="matrix(0.05,0,0,0.05,30.849999999999994,0)" xlink:href="#az"/><use transform="matrix(0.05,0,0,0.05,40.849999999999994,0)" xlink:href="#aE"/><use transform="matrix(0.05,0,0,0.05,46.8,0)" xlink:href="#aO"/><use transform="matrix(0.05,0,0,0.05,56.79999999999999,0)" xlink:href="#aB"/><use transform="matrix(0.05,0,0,0.05,60.75,0)" xlink:href="#aw"/><use transform="matrix(0.05,0,0,0.05,70.75,0)" xlink:href="#bp"/><use transform="matrix(0.05,0,0,0.05,74.7,0)" xlink:href="#az"/></g><g id="V"><use transform="matrix(0.05,0,0,0.05,0,0)" xlink:href="#aG"/><use transform="matrix(0.05,0,0,0.05,10.65,0)" xlink:href="#bf"/><use transform="matrix(0.05,0,0,0.05,22.65,0)" xlink:href="#bk"/><use transform="matrix(0.05,0,0,0.05,36.65,0)" xlink:href="#bf"/><use transform="matrix(0.05,0,0,0.05,48.65,0)" xlink:href="#ba"/><use transform="matrix(0.05,0,0,0.05,63.6,0)" xlink:href="#ah"/><use transform="matrix(0.05,0,0,0.05,75.6,0)" xlink:href="#ai"/><use transform="matrix(0.05,0,0,0.05,88.55,0)" xlink:href="#aj"/><use transform="matrix(0.05,0,0,0.05,99.15,0)" xlink:href="#aI"/></g><g id="W"><use transform="matrix(0.05,0,0,0.05,0,0)" xlink:href="#am"/><use transform="matrix(0.05,0,0,0.05,5,0)" xlink:href="#an"/><use transform="matrix(0.05,0,0,0.05,17.950000000000003,0)" xlink:href="#ao"/><use transform="matrix(0.05,0,0,0.05,27.950000000000003,0)" xlink:href="#aK"/><use transform="matrix(0.05,0,0,0.05,38.900000000000006,0)" xlink:href="#bi"/><use transform="matrix(0.05,0,0,0.05,48.900000000000006,0)" xlink:href="#bl"/><use transform="matrix(0.05,0,0,0.05,59.85,0)" xlink:href="#bi"/><use transform="matrix(0.05,0,0,0.05,69.85000000000001,0)" xlink:href="#bc"/><use transform="matrix(0.05,0,0,0.05,85.85000000000001,0)" xlink:href="#as"/><use transform="matrix(0.05,0,0,0.05,95.85000000000001,0)" xlink:href="#at"/><use transform="matrix(0.05,0,0,0.05,106.80000000000001,0)" xlink:href="#au"/><use transform="matrix(0.05,0,0,0.05,112.75,0)" xlink:href="#aM"/></g><g id="X"><use transform="matrix(0.05,0,0,0.05,0,0)" xlink:href="#aD"/><use transform="matrix(0.05,0,0,0.05,10,0)" xlink:href="#ay"/><use transform="matrix(0.05,0,0,0.05,20,0)" xlink:href="#aQ"/><use transform="matrix(0.05,0,0,0.05,29,0)" xlink:href="#aV"/><use transform="matrix(0.05,0,0,0.05,38,0)" xlink:href="#aE"/><use transform="matrix(0.05,0,0,0.05,43.95,0)" xlink:href="#aA"/><use transform="matrix(0.05,0,0,0.05,47.900000000000006,0)" xlink:href="#aF"/><use transform="matrix(0.05,0,0,0.05,56.900000000000006,0)" xlink:href="#az"/><use transform="matrix(0.05,0,0,0.05,66.9,0)" xlink:href="#aw"/></g><path fill="#3a414a" d="M222 0l43-216c-8 16-17 34-26 49L143 0h-22L81-216 41 0H11l48-248h42l38 208 116-208h45L252 0h-30" id="bq"/><path fill="#3a414a" d="M11 0l48-248h184l-5 28H87l-15 79h140l-5 27H67L50-27h158l-5 27H11" id="br"/><path fill="#3a414a" d="M173 0L80-213 41 0H11l48-248h37l94 214 40-214h30L212 0h-39" id="bs"/><path fill="#3a414a" d="M62-99C39-31 123 0 170-40s38-139 58-208h34C234-144 253 4 115 4 49 4 18-43 31-112l26-136h34" id="bt"/><path fill="#3a414a" d="M-28 44V31h207v13H-28" id="bu"/><path fill="#3a414a" d="M14 0l48-248h34L48 0H14" id="bv"/><path fill="#3a414a" d="M52-101C46-14 166-7 216-51l9-45h-74l6-28h105l-18 87C217-12 181 4 130 4 60 4 18-31 18-101c0-106 78-167 188-146 30 6 48 27 59 54l-34 9c-10-26-31-41-67-40-75 1-107 50-112 123" id="bw"/><path fill="#3a414a" d="M249-183c0 48-29 72-75 77L221 0h-36l-43-103H65L45 0H11l48-248c83 2 190-17 190 65zm-34 3c0-55-74-39-127-41l-18 92c63-1 145 13 145-51" id="bx"/><path fill="#3a414a" d="M248-139C247-14 144 9 11 0l48-248c105-6 190 8 189 109zm-34 0c1-70-52-87-126-82L50-27c98 7 163-21 164-112" id="by"/><path fill="#3a414a" d="M151-220L108 0H75l42-220H32l6-28h203l-5 28h-85" id="bz"/><path fill="#3a414a" d="M194-120c59 52 2 134-86 124-53-6-90-18-98-63l31-7c8 30 29 43 70 43 46 0 84-17 71-62-32-43-135-20-137-98-3-89 178-90 191-16l-30 9c-8-48-127-53-127 5 0 53 81 35 115 65" id="bA"/><g id="Y"><use transform="matrix(0.05,0,0,0.05,0,0)" xlink:href="#bq"/><use transform="matrix(0.05,0,0,0.05,14.950000000000001,0)" xlink:href="#br"/><use transform="matrix(0.05,0,0,0.05,26.950000000000003,0)" xlink:href="#bs"/><use transform="matrix(0.05,0,0,0.05,39.900000000000006,0)" xlink:href="#bt"/><use transform="matrix(0.05,0,0,0.05,52.85,0)" xlink:href="#bu"/><use transform="matrix(0.05,0,0,0.05,62.85,0)" xlink:href="#bv"/><use transform="matrix(0.05,0,0,0.05,67.85000000000001,0)" xlink:href="#bs"/><use transform="matrix(0.05,0,0,0.05,80.80000000000001,0)" xlink:href="#bw"/><use transform="matrix(0.05,0,0,0.05,94.80000000000001,0)" xlink:href="#bx"/><use transform="matrix(0.05,0,0,0.05,107.75,0)" xlink:href="#br"/><use transform="matrix(0.05,0,0,0.05,119.75,0)" xlink:href="#by"/><use transform="matrix(0.05,0,0,0.05,132.70000000000002,0)" xlink:href="#bv"/><use transform="matrix(0.05,0,0,0.05,137.70000000000002,0)" xlink:href="#br"/><use transform="matrix(0.05,0,0,0.05,149.70000000000002,0)" xlink:href="#bs"/><use transform="matrix(0.05,0,0,0.05,162.65,0)" xlink:href="#bz"/><use transform="matrix(0.05,0,0,0.05,173.6,0)" xlink:href="#br"/><use transform="matrix(0.05,0,0,0.05,185.6,0)" xlink:href="#bA"/></g><path fill="#3a414a" d="M238-179c0 84-86 86-175 82L45 0H11l48-248c82 0 179-12 179 69zm-34 1c0-53-64-42-116-43l-19 98c63 0 135 9 135-55" id="bB"/><path fill="#3a414a" d="M180 0L97-118 63-96 45 0H11l48-248h34L69-126c44-43 94-81 141-122h43L121-137 219 0h-39" id="bC"/><path fill="#3a414a" d="M58-38C53-5 46 26 28 46H7C19 32 27 18 32 0H17l7-38h34" id="bD"/><path fill="#3a414a" d="M87-220l-18 92h140l-5 28H64L45 0H11l48-248h178l-5 28H87" id="bE"/><path fill="#3a414a" d="M9 0l6-27h63l36-188-63 39 6-31 66-41h29L110-27h60l-5 27H9" id="bF"/><g id="Z"><use transform="matrix(0.05,0,0,0.05,0,0)" xlink:href="#bB"/><use transform="matrix(0.05,0,0,0.05,12,0)" xlink:href="#bC"/><use transform="matrix(0.05,0,0,0.05,24,0)" xlink:href="#bD"/><use transform="matrix(0.05,0,0,0.05,29,0)" xlink:href="#bE"/><use transform="matrix(0.05,0,0,0.05,39.95,0)" xlink:href="#bC"/><use transform="matrix(0.05,0,0,0.05,51.95,0)" xlink:href="#bF"/></g><path fill="#3a414a" d="M248-111c6-24 9-61-24-58-72 9-57 108-77 169h-31l26-142c3-37-50-30-64-10C52-115 50-51 37 0H6l36-190h30c-1 10-6 24-4 32 13-43 101-52 105 5 13-22 29-41 61-41 90 0 28 129 23 194h-31" id="bG"/><path fill="#3a414a" d="M111-194c62-3 86 47 72 106H45c-7 38 6 69 45 68 27-1 43-14 53-32l24 11C152-15 129 4 87 4 38 3 12-23 12-71c0-70 32-119 99-123zm44 81c14-66-71-72-95-28-4 8-8 17-11 28h106" id="bH"/><path fill="#3a414a" d="M67-158c22-48 132-52 116 29L158 0h-32l25-140c3-38-53-32-70-12C52-117 51-52 38 0H6l36-190h30" id="bI"/><path fill="#3a414a" d="M67 3c-93-2-31-127-26-193h32L48-50c-3 39 53 32 70 12 30-34 30-101 43-152h32L157 0h-30c1-10 6-24 4-33-14 20-29 37-64 36" id="bJ"/><path fill="#3a414a" d="M50-231l6-30h32l-6 30H50zM6 0l37-190h31L37 0H6" id="bK"/><path fill="#3a414a" d="M51-54c-9 22 5 41 31 30L79-1C43 14 10-4 19-52l22-115H19l5-23h22l19-43h21l-9 43h35l-4 23H73" id="bL"/><g id="aa"><use transform="matrix(0.05,0,0,0.05,0,0)" xlink:href="#bv"/><use transform="matrix(0.05,0,0,0.05,5,0)" xlink:href="#by"/><use transform="matrix(0.05,0,0,0.05,17.950000000000003,0)" xlink:href="#bu"/><use transform="matrix(0.05,0,0,0.05,27.950000000000003,0)" xlink:href="#bG"/><use transform="matrix(0.05,0,0,0.05,42.900000000000006,0)" xlink:href="#bH"/><use transform="matrix(0.05,0,0,0.05,52.900000000000006,0)" xlink:href="#bI"/><use transform="matrix(0.05,0,0,0.05,62.900000000000006,0)" xlink:href="#bJ"/><use transform="matrix(0.05,0,0,0.05,72.9,0)" xlink:href="#bu"/><use transform="matrix(0.05,0,0,0.05,82.9,0)" xlink:href="#bK"/><use transform="matrix(0.05,0,0,0.05,86.85000000000001,0)" xlink:href="#bL"/><use transform="matrix(0.05,0,0,0.05,91.85000000000001,0)" xlink:href="#bH"/><use transform="matrix(0.05,0,0,0.05,101.85000000000001,0)" xlink:href="#bG"/></g><path fill="#3a414a" d="M123-251c66 0 92 69 53 113C138-94 73-75 39-27h128l-5 27H-2c17-92 123-93 159-163 14-28-1-64-36-62-29 2-46 17-54 41l-30-6c13-36 37-61 86-61" id="bM"/><g id="ab"><use transform="matrix(0.05,0,0,0.05,0,0)" xlink:href="#bB"/><use transform="matrix(0.05,0,0,0.05,12,0)" xlink:href="#bC"/><use transform="matrix(0.05,0,0,0.05,24,0)" xlink:href="#bD"/><use transform="matrix(0.05,0,0,0.05,29,0)" xlink:href="#bE"/><use transform="matrix(0.05,0,0,0.05,39.95,0)" xlink:href="#bC"/><use transform="matrix(0.05,0,0,0.05,51.95,0)" xlink:href="#bM"/></g><path fill="#3a414a" d="M103-194c29 0 47 14 56 36 2-11 5-23 8-32h30L160-5C157 61 82 97 21 62 9 55 4 45 1 30l28-7c7 42 83 31 92-3 4-16 9-38 13-55-13 20-29 36-62 36-40 0-60-25-60-64 0-71 23-131 91-131zm4 24c-53 0-58 54-61 104-2 27 10 44 36 44 49 0 65-50 67-102 1-29-15-46-42-46" id="bN"/><path fill="#3a414a" d="M66-151c12-25 30-51 66-40l-6 26C45-176 58-65 38 0H6l36-190h30" id="bO"/><path fill="#3a414a" d="M133-28C103 26-5 8 13-77c13-62 24-115 90-117 29-1 46 15 56 35l19-102h32L160 0h-30zM45-64c-2 27 10 43 35 43 54-1 69-50 69-103 0-29-15-46-42-46-53-1-58 58-62 106" id="bP"/><path fill="#3a414a" d="M55-144c13 50 104 24 104 88C159 21 15 23 1-39l26-10c6 40 102 42 102-4-13-50-104-23-104-87 0-71 143-71 148-8l-29 4c-5-35-85-37-89 0" id="bQ"/><g id="ac"><use transform="matrix(0.05,0,0,0.05,0,0)" xlink:href="#bv"/><use transform="matrix(0.05,0,0,0.05,5,0)" xlink:href="#by"/><use transform="matrix(0.05,0,0,0.05,17.950000000000003,0)" xlink:href="#bu"/><use transform="matrix(0.05,0,0,0.05,27.950000000000003,0)" xlink:href="#bK"/><use transform="matrix(0.05,0,0,0.05,31.900000000000002,0)" xlink:href="#bI"/><use transform="matrix(0.05,0,0,0.05,41.900000000000006,0)" xlink:href="#bN"/><use transform="matrix(0.05,0,0,0.05,51.900000000000006,0)" xlink:href="#bO"/><use transform="matrix(0.05,0,0,0.05,57.85,0)" xlink:href="#bH"/><use transform="matrix(0.05,0,0,0.05,67.85000000000001,0)" xlink:href="#bP"/><use transform="matrix(0.05,0,0,0.05,77.85000000000001,0)" xlink:href="#bK"/><use transform="matrix(0.05,0,0,0.05,81.80000000000001,0)" xlink:href="#bH"/><use transform="matrix(0.05,0,0,0.05,91.80000000000001,0)" xlink:href="#bI"/><use transform="matrix(0.05,0,0,0.05,101.80000000000001,0)" xlink:href="#bL"/><use transform="matrix(0.05,0,0,0.05,106.80000000000001,0)" xlink:href="#bH"/><use transform="matrix(0.05,0,0,0.05,116.80000000000001,0)" xlink:href="#bQ"/></g><path fill="#3a414a" d="M133-28C103 26-5 8 13-77c13-62 24-115 90-117 29-1 46 15 56 35 2-12 6-24 8-34h31L144 75h-31zM45-64c-2 27 10 43 35 43 54-1 69-50 69-103 0-29-15-46-42-46-53-1-58 58-62 106" id="bR"/><path fill="#3a414a" d="M165-48c-4 18 1 34 23 27l-3 20c-29 8-62 0-52-35h-2C116-14 99 4 63 4 30 4 8-16 8-49c0-68 71-67 138-67 10-26 0-56-31-54-26 1-42 9-47 31l-32-5c8-67 160-71 144 15-5 28-9 54-15 81zM42-50c3 52 80 24 89-6 7-12 7-24 11-38-47 1-103-4-100 44" id="bS"/><g id="ad"><use transform="matrix(0.05,0,0,0.05,0,0)" xlink:href="#bR"/><use transform="matrix(0.05,0,0,0.05,10,0)" xlink:href="#bJ"/><use transform="matrix(0.05,0,0,0.05,20,0)" xlink:href="#bS"/><use transform="matrix(0.05,0,0,0.05,30,0)" xlink:href="#bI"/><use transform="matrix(0.05,0,0,0.05,40,0)" xlink:href="#bL"/><use transform="matrix(0.05,0,0,0.05,45,0)" xlink:href="#bK"/><use transform="matrix(0.05,0,0,0.05,48.95,0)" xlink:href="#bP"/><use transform="matrix(0.05,0,0,0.05,58.95,0)" xlink:href="#bS"/><use transform="matrix(0.05,0,0,0.05,68.95,0)" xlink:href="#bP"/><use transform="matrix(0.05,0,0,0.05,78.95,0)" xlink:href="#bH"/></g></defs></g></svg>